<svg width="18" height="20" viewBox="0 0 18 20" fill="none" xmlns="http://www.w3.org/2000/svg">
<path fill-rule="evenodd" clip-rule="evenodd" d="M3 6C3 2.68629 5.68629 0 9 0C12.3137 0 15 2.68629 15 6V7.15032C15.2826 7.21225 15.5539 7.30243 15.816 7.43598C16.5686 7.81947 17.1805 8.43139 17.564 9.18404C17.8113 9.66937 17.9099 10.1861 17.9558 10.7482C18 11.2894 18 11.9537 18 12.7587V14.2413C18 15.0463 18 15.7106 17.9558 16.2518C17.9099 16.8139 17.8113 17.3306 17.564 17.816C17.1805 18.5686 16.5686 19.1805 15.816 19.564C15.3306 19.8113 14.8139 19.9099 14.2518 19.9558C13.7106 20 13.0463 20 12.2413 20H5.75873C4.95375 20 4.28938 20 3.74818 19.9558C3.18608 19.9099 2.66938 19.8113 2.18404 19.564C1.43139 19.1805 0.819469 18.5686 0.435976 17.816C0.188685 17.3306 0.0901204 16.8139 0.0441952 16.2518C-2.15396e-05 15.7106 -1.16214e-05 15.0463 3.94415e-07 14.2413V12.7587C-1.16214e-05 11.9537 -2.15396e-05 11.2894 0.0441952 10.7482C0.0901204 10.1861 0.188685 9.66937 0.435976 9.18404C0.819469 8.43139 1.43139 7.81947 2.18404 7.43598C2.44614 7.30243 2.71739 7.21226 3 7.15032V6ZM13 6V7.00163H5V6C5 3.79086 6.79086 2 9 2C11.2091 2 13 3.79086 13 6ZM10 12.5C10 11.9477 9.55229 11.5 9 11.5C8.44772 11.5 8 11.9477 8 12.5V14.5C8 15.0523 8.44771 15.5 9 15.5C9.55228 15.5 10 15.0523 10 14.5V12.5Z" fill="currentColor"/>
</svg>
