<svg width="14" height="16" viewBox="0 0 14 16" fill="none" xmlns="http://www.w3.org/2000/svg">
<path fill-rule="evenodd" clip-rule="evenodd" d="M2.5 5C2.5 2.51472 4.51472 0.5 7 0.5C9.48528 0.5 11.5 2.51472 11.5 5V5.86274C11.712 5.90919 11.9154 5.97682 12.112 6.07698C12.6765 6.3646 13.1354 6.82354 13.423 7.38803C13.6085 7.75203 13.6824 8.13956 13.7169 8.56113C13.75 8.96702 13.75 9.46529 13.75 10.069V11.181C13.75 11.7847 13.75 12.283 13.7169 12.6889C13.6824 13.1104 13.6085 13.498 13.423 13.862C13.1354 14.4265 12.6765 14.8854 12.112 15.173C11.748 15.3585 11.3604 15.4324 10.9389 15.4669C10.533 15.5 10.0347 15.5 9.43096 15.5H4.56904C3.96531 15.5 3.46703 15.5 3.06113 15.4669C2.63956 15.4324 2.25203 15.3585 1.88803 15.173C1.32354 14.8854 0.864602 14.4265 0.576982 13.862C0.391514 13.498 0.31759 13.1104 0.283146 12.6889C0.249984 12.283 0.249991 11.7847 0.25 11.181V10.069C0.249991 9.4653 0.249984 8.96702 0.283146 8.56113C0.31759 8.13956 0.391514 7.75203 0.576982 7.38803C0.864602 6.82354 1.32354 6.3646 1.88803 6.07698C2.08461 5.97682 2.28804 5.90919 2.5 5.86274V5ZM10 5V5.75122H4V5C4 3.34315 5.34315 2 7 2C8.65685 2 10 3.34315 10 5ZM7.75 9.875C7.75 9.46079 7.41421 9.125 7 9.125C6.58579 9.125 6.25 9.46079 6.25 9.875V11.375C6.25 11.7892 6.58579 12.125 7 12.125C7.41421 12.125 7.75 11.7892 7.75 11.375V9.875Z" fill="#FCEB54"/>
</svg>
